M48
METRIC,LZ,000.000
;FILE_FORMAT=3:3
;TYPE=PLATED
;Layer: PTH_Through
;EasyEDA v6.5.54, 2026-04-10 22:52:02
;fda56064b33441aab8db1c0ccebbb0fc,81a6330f3d4149d2af66a0b9843494eb,10
;Gerber Generator version 0.2
;Holesize 1 = 0.306 mm
T01C0.306
;Holesize 2 = 0.701 mm
T02C0.701
;Holesize 3 = 0.915 mm
T03C0.915
;Holesize 4 = 1.251 mm
T04C1.251
;Holesize 5 = 2.000 mm
T05C2.000
%
G05
G90
T01
X031616Y106594
X036738Y102925
X035923Y097023
X046326Y086941
X016618Y104285
X056734Y102266
X042736Y077881
T02
X047117Y084983
X044617Y087483
X049617Y087483
T03
X059055Y089936
X059055Y092436
X059182Y078633
X059182Y081133
X068707Y101493
X068707Y103993
X059182Y101493
X059182Y103993
X068453Y090063
X068453Y092563
X068453Y078760
X068453Y081260
T04
X016035Y081622G85X016035Y081622
X016035Y092622G85X016035Y092622
T05
X026035Y084620G85X026035Y084625
X026035Y089619G85X026035Y089624
M30
