G04 Layer: TopSolderMaskLayer*
G04 EasyEDA v6.5.54, 2026-04-10 22:52:02*
G04 fda56064b33441aab8db1c0ccebbb0fc,81a6330f3d4149d2af66a0b9843494eb,10*
G04 Gerber Generator version 0.2*
G04 Scale: 100 percent, Rotated: No, Reflected: No *
G04 Dimensions in millimeters *
G04 leading zeros omitted , absolute positions ,4 integer and 5 decimal *
%FSLAX45Y45*%
%MOMM*%

%AMMACRO1*4,1,8,-0.4711,-0.4508,-0.5008,-0.421,-0.5008,0.4211,-0.4711,0.4508,0.471,0.4508,0.5008,0.4211,0.5008,-0.421,0.471,-0.4508,-0.4711,-0.4508,0*%
%AMMACRO2*4,1,8,-0.7005,-0.8008,-0.7303,-0.771,-0.7303,0.7711,-0.7005,0.8008,0.7005,0.8008,0.7303,0.7711,0.7303,-0.771,0.7005,-0.8008,-0.7005,-0.8008,0*%
%AMMACRO3*4,1,8,-0.4761,-0.6608,-0.5058,-0.631,-0.5058,0.6311,-0.4761,0.6608,0.476,0.6608,0.5058,0.6311,0.5058,-0.631,0.476,-0.6608,-0.4761,-0.6608,0*%
%AMMACRO4*4,1,8,-0.646,-0.4008,-0.6758,-0.371,-0.6758,0.3711,-0.646,0.4008,0.646,0.4008,0.6758,0.3711,0.6758,-0.371,0.646,-0.4008,-0.646,-0.4008,0*%
%AMMACRO5*4,1,8,-0.4243,-0.4828,-0.454,-0.453,-0.454,0.4531,-0.4243,0.4828,0.4243,0.4828,0.454,0.4531,0.454,-0.453,0.4243,-0.4828,-0.4243,-0.4828,0*%
%AMMACRO6*4,1,8,-0.4531,-0.454,-0.4828,-0.4243,-0.4828,0.4243,-0.4531,0.454,0.453,0.454,0.4828,0.4243,0.4828,-0.4243,0.453,-0.454,-0.4531,-0.454,0*%
%AMMACRO7*4,1,8,-0.6711,-0.2608,-0.7008,-0.231,-0.7008,0.2311,-0.6711,0.2608,0.671,0.2608,0.7008,0.2311,0.7008,-0.231,0.671,-0.2608,-0.6711,-0.2608,0*%
%AMMACRO8*4,1,8,-0.6711,-0.2008,-0.7008,-0.171,-0.7008,0.1711,-0.6711,0.2008,0.671,0.2008,0.7008,0.1711,0.7008,-0.171,0.671,-0.2008,-0.6711,-0.2008,0*%
%AMMACRO9*4,1,8,-0.1711,-0.5258,-0.2008,-0.496,-0.2008,0.4961,-0.1711,0.5258,0.171,0.5258,0.2008,0.4961,0.2008,-0.496,0.171,-0.5258,-0.1711,-0.5258,0*%
%AMMACRO10*4,1,8,-0.1861,-0.9008,-0.2158,-0.871,-0.2158,0.8711,-0.1861,0.9008,0.186,0.9008,0.2158,0.8711,0.2158,-0.871,0.186,-0.9008,-0.1861,-0.9008,0*%
%AMMACRO11*4,1,8,-0.8211,-1.1008,-0.8508,-1.071,-0.8508,1.0711,-0.8211,1.1008,0.821,1.1008,0.8508,1.0711,0.8508,-1.071,0.821,-1.1008,-0.8211,-1.1008,0*%
%AMMACRO12*4,1,8,-0.8211,-1.1008,-0.8508,-1.071,-0.8508,1.071,-0.8211,1.1008,0.821,1.1008,0.8508,1.071,0.8508,-1.071,0.821,-1.1008,-0.8211,-1.1008,0*%
%AMMACRO13*4,1,8,-0.4211,-0.3168,-0.4508,-0.287,-0.4508,0.2871,-0.4211,0.3168,0.421,0.3168,0.4508,0.2871,0.4508,-0.287,0.421,-0.3168,-0.4211,-0.3168,0*%
%AMMACRO14*4,1,8,-0.8307,-0.48,-0.86,-0.4507,-0.86,0.4507,-0.8307,0.48,0.8307,0.48,0.86,0.4507,0.86,-0.4507,0.8307,-0.48,-0.8307,-0.48,0*%
%AMMACRO15*4,1,8,-0.5111,-1.2858,-0.5408,-1.256,-0.5408,1.2561,-0.5111,1.2858,0.511,1.2858,0.5408,1.2561,0.5408,-1.256,0.511,-1.2858,-0.5111,-1.2858,0*%
%AMMACRO16*4,1,8,-0.511,-1.2858,-0.5408,-1.256,-0.5408,1.2561,-0.511,1.2858,0.511,1.2858,0.5408,1.2561,0.5408,-1.256,0.511,-1.2858,-0.511,-1.2858,0*%
%AMMACRO17*4,1,8,-1.8211,-1.2858,-1.8508,-1.256,-1.8508,1.2561,-1.8211,1.2858,1.821,1.2858,1.8508,1.2561,1.8508,-1.256,1.821,-1.2858,-1.8211,-1.2858,0*%
%AMMACRO18*4,1,8,-0.3211,-0.6008,-0.3508,-0.571,-0.3508,0.5711,-0.3211,0.6008,0.321,0.6008,0.3508,0.5711,0.3508,-0.571,0.321,-0.6008,-0.3211,-0.6008,0*%
%AMMACRO19*4,1,8,-0.5207,-0.35,-0.55,-0.3207,-0.55,0.3207,-0.5207,0.35,0.5207,0.35,0.55,0.3207,0.55,-0.3207,0.5207,-0.35,-0.5207,-0.35,0*%
%AMMACRO20*4,1,8,-0.5208,-0.3501,-0.5501,-0.3207,-0.55,0.3207,-0.5207,0.3501,0.5207,0.35,0.55,0.3207,0.5501,-0.3207,0.5208,-0.35,-0.5208,-0.3501,0*%
%AMMACRO21*4,1,8,-0.5207,-0.35,-0.55,-0.3207,-0.55,0.3208,-0.5207,0.35,0.5207,0.35,0.55,0.3208,0.55,-0.3207,0.5207,-0.35,-0.5207,-0.35,0*%
%AMMACRO22*4,1,8,0.5207,-0.35,-0.5207,-0.3499,-0.55,-0.3206,-0.55,0.3207,-0.5207,0.35,0.5207,0.35,0.55,0.3207,0.55,-0.3207,0.5207,-0.35,0*%
%AMMACRO23*4,1,8,0.5207,-0.3501,-0.5207,-0.35,-0.55,-0.3207,-0.55,0.3207,-0.5207,0.35,0.5207,0.3501,0.55,0.3207,0.55,-0.3207,0.5207,-0.3501,0*%
%ADD10MACRO1*%
%ADD11MACRO2*%
%ADD12MACRO3*%
%ADD13MACRO4*%
%ADD14MACRO5*%
%ADD15MACRO6*%
%ADD16C,1.6256*%
%ADD17MACRO7*%
%ADD18MACRO8*%
%ADD19C,0.0191*%
%ADD20MACRO9*%
%ADD21MACRO10*%
%ADD22MACRO11*%
%ADD23MACRO12*%
%ADD24MACRO13*%
%ADD25MACRO14*%
%ADD26MACRO15*%
%ADD27MACRO16*%
%ADD28MACRO17*%
%ADD29MACRO18*%
%ADD30MACRO19*%
%ADD31MACRO20*%
%ADD32MACRO21*%
%ADD33MACRO22*%
%ADD34MACRO23*%
%ADD35C,3.1016*%
%ADD36C,1.9766*%
%ADD37C,1.6240*%

%LPD*%
D10*
G01*
X2959100Y10102700D03*
G01*
X2959100Y10242699D03*
G01*
X2959100Y9861699D03*
G01*
X2959100Y9721700D03*
G01*
X3683000Y10204599D03*
G01*
X3683000Y10064600D03*
G01*
X3670300Y10445600D03*
G01*
X3670300Y10585599D03*
G01*
X5003800Y7905899D03*
G01*
X5003800Y7765900D03*
G01*
X4368800Y7905899D03*
G01*
X4368800Y7765900D03*
G01*
X3124200Y8083699D03*
G01*
X3124200Y7943700D03*
G01*
X3733800Y8083699D03*
G01*
X3733800Y7943700D03*
G01*
X3797300Y8870800D03*
G01*
X3797300Y9010799D03*
G01*
X3086100Y9023499D03*
G01*
X3086100Y8883500D03*
G01*
X4152900Y9582299D03*
G01*
X4152900Y9442300D03*
G01*
X1638300Y10153500D03*
G01*
X1638300Y10293499D03*
G01*
X2501900Y10140800D03*
G01*
X2501900Y10280799D03*
G01*
X1625600Y9747100D03*
G01*
X1625600Y9887099D03*
D11*
G01*
X5334000Y9417700D03*
G01*
X5334000Y9657698D03*
G01*
X5334000Y10635599D03*
G01*
X5334000Y10395601D03*
G01*
X4152900Y10635599D03*
G01*
X4152900Y10395601D03*
D12*
G01*
X3478211Y10109200D03*
G01*
X3151188Y10109200D03*
D13*
G01*
X4189399Y9912604D03*
G01*
X4189399Y10102594D03*
G01*
X3989400Y10007598D03*
D14*
G01*
X1639175Y10553700D03*
G01*
X1789824Y10553700D03*
G01*
X3239375Y9702800D03*
G01*
X3390024Y9702800D03*
D15*
G01*
X3683000Y9854324D03*
G01*
X3683000Y9703675D03*
D14*
G01*
X2501024Y10553700D03*
G01*
X2350375Y10553700D03*
G01*
X3239375Y9893300D03*
G01*
X3390024Y9893300D03*
G01*
X4825124Y10579100D03*
G01*
X4674475Y10579100D03*
G01*
X3391775Y8648700D03*
G01*
X3542424Y8648700D03*
D15*
G01*
X5334000Y9970375D03*
G01*
X5334000Y10121024D03*
D14*
G01*
X2020175Y9753600D03*
G01*
X2170824Y9753600D03*
D15*
G01*
X2501900Y9905124D03*
G01*
X2501900Y9754475D03*
D16*
G01*
X4711674Y8498306D03*
G01*
X4461687Y8748293D03*
G01*
X4961686Y8748293D03*
D17*
G01*
X1960192Y10374958D03*
D18*
G01*
X1958188Y10294956D03*
G01*
X1958188Y10244956D03*
G01*
X2258188Y10244956D03*
G01*
X2258188Y10294956D03*
D17*
G01*
X2254187Y10374958D03*
D20*
G01*
X2158188Y10392453D03*
D21*
G01*
X2108187Y10354953D03*
D20*
G01*
X2058188Y10392453D03*
D22*
G01*
X1987184Y10079958D03*
D23*
G01*
X2234173Y10079956D03*
D24*
G01*
X3421999Y10395204D03*
G01*
X3421999Y10490198D03*
G01*
X3421999Y10585194D03*
G01*
X3182000Y10585194D03*
G01*
X3182000Y10490198D03*
G01*
X3182000Y10395204D03*
D25*
G01*
X2959100Y10425600D03*
G01*
X2959100Y10605599D03*
D26*
G01*
X4532499Y9762200D03*
D27*
G01*
X4762500Y9762200D03*
D26*
G01*
X4992500Y9762200D03*
D28*
G01*
X4762500Y10329199D03*
D29*
G01*
X4781296Y7655088D03*
G01*
X4591303Y7655088D03*
G01*
X4591303Y7915111D03*
G01*
X4686300Y7915111D03*
G01*
X4781296Y7915111D03*
G01*
X3523996Y7870988D03*
G01*
X3334003Y7870988D03*
G01*
X3334003Y8131011D03*
G01*
X3429000Y8131011D03*
G01*
X3523996Y8131011D03*
D30*
G01*
X3357090Y8928100D03*
D31*
G01*
X3357087Y8833110D03*
D32*
G01*
X3357095Y9023090D03*
D33*
G01*
X3577103Y8833096D03*
D34*
G01*
X3577103Y9023102D03*
D35*
G01*
X2603500Y8462213D03*
G01*
X2603500Y8962186D03*
D36*
G01*
X1603502Y8162188D03*
G01*
X1603502Y9262211D03*
D37*
G01*
X5905500Y8993581D03*
G01*
X5905500Y9243593D03*
G01*
X5918200Y7863281D03*
G01*
X5918200Y8113293D03*
G01*
X6870700Y10149281D03*
G01*
X6870700Y10399293D03*
G01*
X5918200Y10149281D03*
G01*
X5918200Y10399293D03*
G01*
X6845300Y9006281D03*
G01*
X6845300Y9256293D03*
G01*
X6845300Y7875981D03*
G01*
X6845300Y8125993D03*
M02*
