G04 Layer: TopPasteMaskLayer*
G04 EasyEDA v6.5.54, 2026-04-10 22:52:02*
G04 fda56064b33441aab8db1c0ccebbb0fc,81a6330f3d4149d2af66a0b9843494eb,10*
G04 Gerber Generator version 0.2*
G04 Scale: 100 percent, Rotated: No, Reflected: No *
G04 Dimensions in millimeters *
G04 leading zeros omitted , absolute positions ,4 integer and 5 decimal *
%FSLAX45Y45*%
%MOMM*%

%AMMACRO1*21,1,$1,$2,0,0,$3*%
%ADD10R,0.9000X0.8000*%
%ADD11R,1.3589X1.5000*%
%ADD12R,0.9100X1.2200*%
%ADD13R,1.2500X0.7000*%
%ADD14MACRO1,1.3X0.42X0.0000*%
%ADD15MACRO1,1.3X0.3X0.0000*%
%ADD16MACRO1,0.3X0.95X0.0000*%
%ADD17C,0.0186*%
%ADD18MACRO1,0.33X1.7X0.0000*%
%ADD19MACRO1,1.6X2.1X0.0000*%
%ADD20R,0.8000X0.5320*%
%ADD21R,1.6200X0.8600*%
%ADD22R,0.9800X2.4700*%
%ADD23MACRO1,3.6X2.47X0.0000*%
%ADD24R,0.6000X1.1000*%
%ADD25R,1.0000X0.6000*%

%LPD*%
G36*
X1595018Y10598708D02*
G01*
X1589989Y10593679D01*
X1589989Y10513720D01*
X1595018Y10508691D01*
X1674977Y10508691D01*
X1680006Y10513720D01*
X1680006Y10536478D01*
X1642973Y10536478D01*
X1642973Y10569498D01*
X1680006Y10569498D01*
X1680006Y10593679D01*
X1674977Y10598708D01*
G37*
G36*
X1754022Y10598708D02*
G01*
X1748993Y10593679D01*
X1748993Y10570921D01*
X1786026Y10570921D01*
X1786026Y10537901D01*
X1748993Y10537901D01*
X1748993Y10513720D01*
X1754022Y10508691D01*
X1833981Y10508691D01*
X1839010Y10513720D01*
X1839010Y10593679D01*
X1833981Y10598708D01*
G37*
G36*
X3195218Y9747808D02*
G01*
X3190189Y9742779D01*
X3190189Y9662820D01*
X3195218Y9657791D01*
X3275177Y9657791D01*
X3280206Y9662820D01*
X3280206Y9685578D01*
X3243224Y9685578D01*
X3243224Y9718598D01*
X3280206Y9718598D01*
X3280206Y9742779D01*
X3275177Y9747808D01*
G37*
G36*
X3354222Y9747808D02*
G01*
X3349193Y9742779D01*
X3349193Y9720021D01*
X3386175Y9720021D01*
X3386175Y9687001D01*
X3349193Y9687001D01*
X3349193Y9662820D01*
X3354222Y9657791D01*
X3434181Y9657791D01*
X3439210Y9662820D01*
X3439210Y9742779D01*
X3434181Y9747808D01*
G37*
G36*
X3643020Y9903510D02*
G01*
X3637991Y9898481D01*
X3637991Y9818522D01*
X3643020Y9813493D01*
X3665778Y9813493D01*
X3665778Y9850526D01*
X3698798Y9850526D01*
X3698798Y9813493D01*
X3722979Y9813493D01*
X3728008Y9818522D01*
X3728008Y9898481D01*
X3722979Y9903510D01*
G37*
G36*
X3643020Y9744506D02*
G01*
X3637991Y9739477D01*
X3637991Y9659518D01*
X3643020Y9654489D01*
X3722979Y9654489D01*
X3728008Y9659518D01*
X3728008Y9739477D01*
X3722979Y9744506D01*
X3700221Y9744506D01*
X3700221Y9707473D01*
X3667201Y9707473D01*
X3667201Y9744506D01*
G37*
G36*
X2465222Y10598708D02*
G01*
X2460193Y10593679D01*
X2460193Y10570921D01*
X2497175Y10570921D01*
X2497175Y10537901D01*
X2460193Y10537901D01*
X2460193Y10513720D01*
X2465222Y10508691D01*
X2545181Y10508691D01*
X2550210Y10513720D01*
X2550210Y10593679D01*
X2545181Y10598708D01*
G37*
G36*
X2306218Y10598708D02*
G01*
X2301189Y10593679D01*
X2301189Y10513720D01*
X2306218Y10508691D01*
X2386177Y10508691D01*
X2391206Y10513720D01*
X2391206Y10536478D01*
X2354224Y10536478D01*
X2354224Y10569498D01*
X2391206Y10569498D01*
X2391206Y10593679D01*
X2386177Y10598708D01*
G37*
G36*
X3195218Y9938308D02*
G01*
X3190189Y9933279D01*
X3190189Y9853320D01*
X3195218Y9848291D01*
X3275177Y9848291D01*
X3280206Y9853320D01*
X3280206Y9876078D01*
X3243224Y9876078D01*
X3243224Y9909098D01*
X3280206Y9909098D01*
X3280206Y9933279D01*
X3275177Y9938308D01*
G37*
G36*
X3354222Y9938308D02*
G01*
X3349193Y9933279D01*
X3349193Y9910521D01*
X3386175Y9910521D01*
X3386175Y9877501D01*
X3349193Y9877501D01*
X3349193Y9853320D01*
X3354222Y9848291D01*
X3434181Y9848291D01*
X3439210Y9853320D01*
X3439210Y9933279D01*
X3434181Y9938308D01*
G37*
G36*
X4789322Y10624108D02*
G01*
X4784293Y10619079D01*
X4784293Y10596321D01*
X4821275Y10596321D01*
X4821275Y10563301D01*
X4784293Y10563301D01*
X4784293Y10539120D01*
X4789322Y10534091D01*
X4869281Y10534091D01*
X4874310Y10539120D01*
X4874310Y10619079D01*
X4869281Y10624108D01*
G37*
G36*
X4630318Y10624108D02*
G01*
X4625289Y10619079D01*
X4625289Y10539120D01*
X4630318Y10534091D01*
X4710277Y10534091D01*
X4715306Y10539120D01*
X4715306Y10561878D01*
X4678324Y10561878D01*
X4678324Y10594898D01*
X4715306Y10594898D01*
X4715306Y10619079D01*
X4710277Y10624108D01*
G37*
G36*
X3347618Y8693708D02*
G01*
X3342589Y8688679D01*
X3342589Y8608720D01*
X3347618Y8603691D01*
X3427577Y8603691D01*
X3432606Y8608720D01*
X3432606Y8631478D01*
X3395624Y8631478D01*
X3395624Y8664498D01*
X3432606Y8664498D01*
X3432606Y8688679D01*
X3427577Y8693708D01*
G37*
G36*
X3506622Y8693708D02*
G01*
X3501593Y8688679D01*
X3501593Y8665921D01*
X3538575Y8665921D01*
X3538575Y8632901D01*
X3501593Y8632901D01*
X3501593Y8608720D01*
X3506622Y8603691D01*
X3586581Y8603691D01*
X3591610Y8608720D01*
X3591610Y8688679D01*
X3586581Y8693708D01*
G37*
G36*
X5294020Y10011206D02*
G01*
X5288991Y10006177D01*
X5288991Y9926218D01*
X5294020Y9921189D01*
X5373979Y9921189D01*
X5379008Y9926218D01*
X5379008Y10006177D01*
X5373979Y10011206D01*
X5351221Y10011206D01*
X5351221Y9974173D01*
X5318201Y9974173D01*
X5318201Y10011206D01*
G37*
G36*
X5294020Y10170210D02*
G01*
X5288991Y10165181D01*
X5288991Y10085222D01*
X5294020Y10080193D01*
X5316778Y10080193D01*
X5316778Y10117226D01*
X5349798Y10117226D01*
X5349798Y10080193D01*
X5373979Y10080193D01*
X5379008Y10085222D01*
X5379008Y10165181D01*
X5373979Y10170210D01*
G37*
G36*
X1976018Y9798608D02*
G01*
X1970989Y9793579D01*
X1970989Y9713620D01*
X1976018Y9708591D01*
X2055977Y9708591D01*
X2061006Y9713620D01*
X2061006Y9736378D01*
X2024024Y9736378D01*
X2024024Y9769398D01*
X2061006Y9769398D01*
X2061006Y9793579D01*
X2055977Y9798608D01*
G37*
G36*
X2135022Y9798608D02*
G01*
X2129993Y9793579D01*
X2129993Y9770821D01*
X2166975Y9770821D01*
X2166975Y9737801D01*
X2129993Y9737801D01*
X2129993Y9713620D01*
X2135022Y9708591D01*
X2214981Y9708591D01*
X2220010Y9713620D01*
X2220010Y9793579D01*
X2214981Y9798608D01*
G37*
G36*
X2461920Y9954310D02*
G01*
X2456891Y9949281D01*
X2456891Y9869322D01*
X2461920Y9864293D01*
X2484678Y9864293D01*
X2484678Y9901326D01*
X2517698Y9901326D01*
X2517698Y9864293D01*
X2541879Y9864293D01*
X2546908Y9869322D01*
X2546908Y9949281D01*
X2541879Y9954310D01*
G37*
G36*
X2461920Y9795306D02*
G01*
X2456891Y9790277D01*
X2456891Y9710318D01*
X2461920Y9705289D01*
X2541879Y9705289D01*
X2546908Y9710318D01*
X2546908Y9790277D01*
X2541879Y9795306D01*
X2519121Y9795306D01*
X2519121Y9758273D01*
X2486101Y9758273D01*
X2486101Y9795306D01*
G37*
D10*
G01*
X2959100Y10102697D03*
G01*
X2959100Y10242702D03*
G01*
X2959100Y9861702D03*
G01*
X2959100Y9721697D03*
G01*
X3683000Y10204602D03*
G01*
X3683000Y10064597D03*
G01*
X3670300Y10445597D03*
G01*
X3670300Y10585602D03*
G01*
X5003800Y7905902D03*
G01*
X5003800Y7765897D03*
G01*
X4368800Y7905902D03*
G01*
X4368800Y7765897D03*
G01*
X3124200Y8083702D03*
G01*
X3124200Y7943697D03*
G01*
X3733800Y8083702D03*
G01*
X3733800Y7943697D03*
G01*
X3797300Y8870797D03*
G01*
X3797300Y9010802D03*
G01*
X3086100Y9023502D03*
G01*
X3086100Y8883497D03*
G01*
X4152900Y9582302D03*
G01*
X4152900Y9442297D03*
G01*
X1638300Y10153497D03*
G01*
X1638300Y10293502D03*
G01*
X2501900Y10140797D03*
G01*
X2501900Y10280802D03*
G01*
X1625600Y9747097D03*
G01*
X1625600Y9887102D03*
D11*
G01*
X5334000Y9417710D03*
G01*
X5334000Y9657689D03*
G01*
X5334000Y10635589D03*
G01*
X5334000Y10395610D03*
G01*
X4152900Y10635589D03*
G01*
X4152900Y10395610D03*
D12*
G01*
X3478199Y10109200D03*
G01*
X3151200Y10109200D03*
D13*
G01*
X4189399Y9912604D03*
G01*
X4189399Y10102595D03*
G01*
X3989400Y10007600D03*
D14*
G01*
X1960192Y10374958D03*
D15*
G01*
X1958188Y10294956D03*
G01*
X1958188Y10244956D03*
G01*
X2258188Y10244956D03*
G01*
X2258188Y10294956D03*
D14*
G01*
X2254187Y10374958D03*
D16*
G01*
X2158188Y10392453D03*
D18*
G01*
X2108187Y10354953D03*
D16*
G01*
X2058188Y10392453D03*
D19*
G01*
X1987184Y10079958D03*
G01*
X2234173Y10079956D03*
D20*
G01*
X3421989Y10395204D03*
G01*
X3421989Y10490200D03*
G01*
X3421989Y10585195D03*
G01*
X3182010Y10585195D03*
G01*
X3182010Y10490200D03*
G01*
X3182010Y10395204D03*
D21*
G01*
X2959100Y10425607D03*
G01*
X2959100Y10605592D03*
D22*
G01*
X4532502Y9762210D03*
G01*
X4762500Y9762210D03*
G01*
X4992497Y9762210D03*
D23*
G01*
X4762500Y10329199D03*
D24*
G01*
X4781295Y7655077D03*
G01*
X4591304Y7655077D03*
G01*
X4591304Y7915122D03*
G01*
X4686300Y7915122D03*
G01*
X4781295Y7915122D03*
G01*
X3523995Y7870977D03*
G01*
X3334004Y7870977D03*
G01*
X3334004Y8131022D03*
G01*
X3429000Y8131022D03*
G01*
X3523995Y8131022D03*
D25*
G01*
X3357092Y8928100D03*
G01*
X3357092Y8833104D03*
G01*
X3357092Y9023095D03*
G01*
X3577107Y8833104D03*
G01*
X3577107Y9023095D03*
M02*
